<svg width="24" height="24" viewBox="0 0 24 24" fill="none" xmlns="http://www.w3.org/2000/svg">
<path d="M20.8807 4.6193C20.3676 4.10593 19.7583 3.6987 19.0878 3.42085C18.4172 3.14301 17.6985 3 16.9727 3C16.2468 3 15.5281 3.14301 14.8576 3.42085C14.187 3.6987 13.5778 4.10593 13.0646 4.6193L11.9997 5.68421L10.9348 4.6193C9.89834 3.58282 8.49258 3.00054 7.02679 3.00054C5.56099 3.00054 4.15523 3.58282 3.11876 4.6193C2.08229 5.65577 1.5 7.06153 1.5 8.52732C1.5 9.99312 2.08229 11.3989 3.11876 12.4354L4.18367 13.5003L11.9997 21.3163L19.8158 13.5003L20.8807 12.4354C21.3941 11.9222 21.8013 11.313 22.0791 10.6424C22.357 9.97189 22.5 9.25316 22.5 8.52732C22.5 7.80149 22.357 7.08276 22.0791 6.41221C21.8013 5.74166 21.3941 5.13242 20.8807 4.6193Z" fill="#4FBA5D" stroke="#4FBA5D" stroke-width="2" stroke-linecap="round" stroke-linejoin="round"/>
</svg>
