<svg width="32" height="32" viewBox="0 0 32 32" fill="none" xmlns="http://www.w3.org/2000/svg">
<path d="M21.3333 5.33333H24C24.7072 5.33333 25.3855 5.61428 25.8856 6.11438C26.3857 6.61447 26.6666 7.29275 26.6666 7.99999V26.6667C26.6666 27.3739 26.3857 28.0522 25.8856 28.5523C25.3855 29.0524 24.7072 29.3333 24 29.3333H7.99998C7.29274 29.3333 6.61446 29.0524 6.11436 28.5523C5.61426 28.0522 5.33331 27.3739 5.33331 26.6667V7.99999C5.33331 7.29275 5.61426 6.61447 6.11436 6.11438C6.61446 5.61428 7.29274 5.33333 7.99998 5.33333H10.6666" stroke="#4FBA5D" stroke-width="2" stroke-linecap="round" stroke-linejoin="round"/>
<path d="M20 2.66667H12C11.2636 2.66667 10.6667 3.26363 10.6667 4.00001V6.66667C10.6667 7.40305 11.2636 8 12 8H20C20.7364 8 21.3334 7.40305 21.3334 6.66667V4.00001C21.3334 3.26363 20.7364 2.66667 20 2.66667Z" stroke="#4FBA5D" stroke-width="2" stroke-linecap="round" stroke-linejoin="round"/>
</svg>
